<svg id="Capa_1" enable-background="new 0 0 512 512" height="512" viewBox="0 0 512 512" width="512" xmlns="http://www.w3.org/2000/svg"><g><g><g><path d="m504.5 69.625c0 34.314-27.655 62.125-61.766 62.125h-404.356c-.204 0-.476 0-.806-.009-8.212-.214-15.618-3.64-21.025-9.086-1.757-1.767-3.31-3.747-4.601-5.902-2.825-4.689-4.446-10.183-4.446-16.065 0-17.152 13.823-31.063 30.878-31.063-.272 0-.544-.009-.825-.009-1.835-.049-3.621-.263-5.358-.612-.01 0-.019 0-.039-.009-6.038-1.243-11.425-4.252-15.609-8.465-1.757-1.767-3.31-3.747-4.601-5.902-2.825-4.689-4.446-10.183-4.446-16.065 0-17.153 13.823-31.063 30.878-31.063h404.356c3.922 0 7.756.369 11.464 1.077 12.464 2.34 23.598 8.455 32.208 17.114 11.182 11.241 18.094 26.772 18.094 43.934z" fill="#aca6d6"/><path d="m504.5 69.625c0 34.314-27.655 62.125-61.766 62.125h-404.356c-.204 0-.476 0-.806-.009-8.212-.214-15.618-3.64-21.025-9.086-1.757-1.767-3.31-3.747-4.601-5.902h400.794c20.288 0 38.304-9.853 49.564-25.053 7.834-10.571-.514-24.278-13.677-24.21-410.248 2.136 0 0-410.248 2.136-.272 0-.544-.009-.825-.009-1.835-.049-3.621-.263-5.358-.612-.01 0-.019 0-.039-.009-6.038-1.243-11.425-4.252-15.609-8.465-1.757-1.767-3.31-3.747-4.601-5.902h400.794c15.959 0 30.5-6.096 41.459-16.104 8.727-7.96 8.853-21.821.146-29.81-.029-.029-.097-.087-.146-.136 12.464 2.34 23.598 8.455 32.208 17.114 11.18 11.239 18.092 26.77 18.092 43.932z" fill="#978ecb"/><path d="m473.618 193.875c17.056 0 30.882 13.907 30.882 31.063 0 17.155-13.826 31.063-30.882 31.063h-404.354c-34.111-.001-61.764-27.815-61.764-62.126 0-34.311 27.653-62.125 61.764-62.125h404.353c17.056 0 30.882 13.907 30.882 31.063.001 17.155-13.825 31.062-30.881 31.062" fill="#7acaa6"/><path d="m473.618 193.875c.548 0 1.047-.013 1.503-.037.182-.009.361-.025.542-.037.025-.002.051-.003.075-.006 16.148-1.1 28.762-14.792 28.762-30.982 0-17.033-13.715-31.071-30.882-31.063l.883 16.063c0 17.155-13.827 31.063-30.882 31.063h-404.354c-1.731 0-15.136-.075-29.891-.219-1.216 4.858-1.87 9.941-1.873 15.177.587.017 1.172.042 1.764.042h57.846 391.195c8.82 0 16.145 7.056 16.193 15.876 0 .062.001.124.001.187 0 17.155-13.827 31.063-30.882 31.063h-404.353c-3.921 0-7.751-.384-11.469-1.086 10.962 9.993 25.508 16.084 41.469 16.084h404.353c17.056 0 30.882-13.907 30.882-31.063s-13.826-31.062-30.882-31.062z" fill="#57be92"/></g><g><path d="m504.5 318.125c0 34.314-27.655 62.125-61.766 62.125h-404.356c-.204 0-.476 0-.806-.009-8.212-.214-15.618-3.64-21.025-9.086-1.757-1.767-3.31-3.747-4.601-5.902-2.825-4.689-4.446-10.183-4.446-16.065 0-17.152 13.823-31.063 30.878-31.063-.272 0-.544-.009-.825-.009-1.835-.049-3.621-.263-5.358-.612-.01 0-.019 0-.039-.009-6.038-1.243-11.425-4.252-15.609-8.465-1.757-1.767-3.31-3.747-4.601-5.902-2.825-4.689-4.446-10.183-4.446-16.065 0-17.153 13.823-31.063 30.878-31.063h404.356c3.922 0 7.756.369 11.464 1.077 12.464 2.34 23.598 8.455 32.208 17.114 11.182 11.241 18.094 26.772 18.094 43.934z" fill="#aca6d6"/><path d="m504.5 318.125c0 34.314-27.655 62.125-61.766 62.125h-404.356c-.204 0-.476 0-.806-.009-8.212-.214-15.618-3.64-21.025-9.086-1.757-1.767-3.31-3.747-4.601-5.902h400.794c20.288 0 38.304-9.853 49.564-25.053 7.834-10.571-.514-24.278-13.677-24.21-410.248 2.136 0 0-410.248 2.136-.272 0-.544-.009-.825-.009-1.835-.049-3.621-.263-5.358-.612-.01 0-.019 0-.039-.009-6.038-1.243-11.425-4.252-15.609-8.465-1.757-1.767-3.31-3.747-4.601-5.902h400.794c15.959 0 30.5-6.096 41.459-16.104 8.727-7.96 8.853-21.821.146-29.81-.029-.029-.097-.087-.146-.136 12.464 2.34 23.598 8.455 32.208 17.114 11.18 11.239 18.092 26.77 18.092 43.932z" fill="#978ecb"/><path d="m473.618 442.375c17.056 0 30.882 13.907 30.882 31.063 0 17.155-13.826 31.063-30.882 31.063h-404.354c-34.111-.001-61.764-27.815-61.764-62.126 0-34.311 27.653-62.125 61.764-62.125h404.353c17.056 0 30.882 13.907 30.882 31.063.001 17.155-13.825 31.062-30.881 31.062" fill="#7acaa6"/><path d="m473.618 442.375c.548 0 1.047-.013 1.503-.037.182-.009.361-.025.542-.037.025-.002.051-.003.075-.006 16.148-1.1 28.762-14.792 28.762-30.982 0-17.033-13.715-31.071-30.882-31.063l.883 16.063c0 17.155-13.827 31.063-30.882 31.063h-404.354c-1.731 0-15.136-.075-29.891-.219-1.216 4.858-1.87 9.941-1.873 15.177.587.017 1.172.042 1.764.042h57.846 391.195c8.82 0 16.145 7.056 16.193 15.876 0 .062.001.124.001.187 0 17.155-13.827 31.063-30.882 31.063h-404.353c-3.921 0-7.751-.384-11.469-1.086 10.962 9.996 25.508 16.086 41.469 16.086h404.353c17.056 0 30.882-13.907 30.882-31.063s-13.826-31.064-30.882-31.064z" fill="#57be92"/></g></g><path d="m338.894 434.875h-271.783c-4.142 0-7.5 3.358-7.5 7.5s3.358 7.5 7.5 7.5h271.782c4.142 0 7.5-3.358 7.5-7.5s-3.357-7.5-7.499-7.5zm-223.182-248.5h-48.601c-4.142 0-7.5 3.358-7.5 7.5s3.358 7.5 7.5 7.5h48.601c4.142 0 7.5-3.358 7.5-7.5s-3.358-7.5-7.5-7.5zm396.288-23.562c0-17.717-11.958-32.671-28.187-37.171 17.083-12.692 28.187-33.073 28.187-56.017 0-38.391-31.072-69.625-69.265-69.625h-404.353c-21.164 0-38.382 17.299-38.382 38.563 0 12.727 6.169 24.035 15.661 31.062-9.492 7.027-15.661 18.335-15.661 31.063 0 17.717 11.958 32.671 28.187 37.171-17.083 12.691-28.187 33.072-28.187 56.016s11.104 43.325 28.187 56.017c-16.229 4.499-28.187 19.454-28.187 37.171 0 12.728 6.169 24.035 15.661 31.063-9.492 7.026-15.661 18.334-15.661 31.062 0 17.717 11.958 32.671 28.187 37.171-17.083 12.691-28.187 33.072-28.187 56.016 0 38.391 31.072 69.625 69.265 69.625h404.353c21.164 0 38.382-17.299 38.382-38.562 0-12.728-6.169-24.035-15.661-31.063 9.492-7.027 15.661-18.335 15.661-31.062 0-17.717-11.958-32.671-28.187-37.171 17.083-12.692 28.187-33.073 28.187-56.017s-11.104-43.325-28.187-56.017c16.229-4.5 28.187-19.454 28.187-37.171 0-12.728-6.169-24.035-15.661-31.063 9.492-7.026 15.661-18.334 15.661-31.061zm-497-62.125c0-12.992 10.489-23.563 23.382-23.563h406.506c4.142 0 7.5-3.358 7.5-7.5s-3.358-7.5-7.5-7.5h-406.506c-12.893 0-23.382-10.57-23.382-23.562s10.489-23.563 23.382-23.563h404.353c29.922 0 54.265 24.505 54.265 54.625s-24.343 54.625-54.265 54.625h-404.353c-12.893 0-23.382-10.57-23.382-23.562zm482 310.625c0 12.992-10.489 23.563-23.382 23.563h-104.724c-4.142 0-7.5 3.358-7.5 7.5s3.358 7.5 7.5 7.5h104.724c12.893 0 23.382 10.57 23.382 23.563s-10.489 23.561-23.382 23.561h-404.353c-29.922 0-54.265-24.505-54.265-54.625s24.343-54.625 54.265-54.625h404.353c12.893 0 23.382 10.57 23.382 23.563zm0-93.188c0 30.12-24.343 54.625-54.265 54.625h-404.353c-12.893 0-23.382-10.57-23.382-23.562s10.489-23.563 23.382-23.563h406.506c4.142 0 7.5-3.358 7.5-7.5s-3.358-7.5-7.5-7.5h-406.506c-12.893 0-23.382-10.57-23.382-23.563s10.489-23.562 23.382-23.562h404.353c29.922 0 54.265 24.505 54.265 54.625zm-23.382-131.75h-327.906c-4.142 0-7.5 3.358-7.5 7.5s3.358 7.5 7.5 7.5h327.905c12.893 0 23.382 10.57 23.382 23.563s-10.488 23.562-23.381 23.562h-404.353c-29.922 0-54.265-24.505-54.265-54.625s24.343-54.625 54.265-54.625h404.353c12.893 0 23.382 10.57 23.382 23.563s-10.489 23.562-23.382 23.562z"/></g></svg>