<svg height="512" viewBox="0 0 64 64" width="512" xmlns="http://www.w3.org/2000/svg"><g id="Filled_outline" data-name="Filled outline"><path d="m45 3h-26-12v14h12v18h26v-18h12v-14z" fill="#98ecb7"/><path d="m7 3h4v14h-4z" fill="#8ec13f"/><path d="m53 3h4v14h-4z" fill="#8ec13f" transform="matrix(-1 0 0 -1 110 20)"/><path d="m41 3a9 9 0 0 1 -18 0h4a5 5 0 0 0 10 0z" fill="#3e8051"/><path d="m51 29a5.993 5.993 0 0 0 -1.645.234 10.983 10.983 0 0 0 -19.121.717 5.974 5.974 0 0 0 -6.69.15 9 9 0 0 0 -16.544 4.899h50a6 6 0 0 0 -6-6z" fill="#6caade"/><g fill="#2d75bb"><circle cx="53" cy="23" r="2"/><circle cx="8" cy="23" r="2"/><circle cx="27" cy="19" r="2"/></g><path d="m37 35h-32a2 2 0 0 0 0 4h32z" fill="#b11e48"/><path d="m59 35h-10v4h10a2 2 0 0 0 0-4z" fill="#b11e48"/><path d="m49 39v10a2 2 0 0 1 -4 0v-4a2 2 0 0 0 -4 0 2 2 0 0 1 -4 0v-6h-30l3 18a5 5 0 0 0 5 4h34a5 5 0 0 0 5-4l3-18z" fill="#e33e5c"/><path d="m37 35v10a2 2 0 0 0 4 0 2 2 0 0 1 4 0v4a2 2 0 0 0 4 0v-14z" fill="#f4f4e6"/><path d="m40 29v-2c-4.573 0-6.559 3.112-6.97 4.757l1.94.486c.008-.033.859-3.243 5.03-3.243z"/><path d="m50 23a3 3 0 1 0 3-3 3 3 0 0 0 -3 3zm4 0a1 1 0 1 1 -1-1 1 1 0 0 1 1 1z"/><path d="m8 26a3 3 0 1 0 -3-3 3 3 0 0 0 3 3zm0-4a1 1 0 1 1 -1 1 1 1 0 0 1 1-1z"/><path d="m13.986 50.835-1.972.33 1 6a1 1 0 0 0 .986.835h4v-2h-3.153z"/><path d="m20 56h2v2h-2z"/><path d="m24 56h2v2h-2z"/><path d="m27 22a3 3 0 1 0 -3-3 3 3 0 0 0 3 3zm0-4a1 1 0 1 1 -1 1 1 1 0 0 1 1-1z"/><path d="m59 34h-1.08a7 7 0 0 0 -6.92-6 6.866 6.866 0 0 0 -1.192.105 11.985 11.985 0 0 0 -3.808-3.479v-6.626h11a1 1 0 0 0 1-1v-14a1 1 0 0 0 -1-1h-50a1 1 0 0 0 -1 1v14a1 1 0 0 0 1 1h11v7.212a9.951 9.951 0 0 0 -11.949 8.788h-1.051a3 3 0 0 0 0 6h1.153l2.863 17.179a6 6 0 0 0 5.984 4.821h34a6 6 0 0 0 5.986-4.835l2.861-17.165h1.153a3 3 0 0 0 0-6zm-5-30h2v12h-2zm-44 12h-2v-12h2zm25.858-12a3.981 3.981 0 0 1 -7.716 0zm-9.775 0a6 6 0 0 0 11.834 0h2.021a8 8 0 0 1 -15.876 0zm-14.083 12v-12h10.051a10 10 0 0 0 19.9 0h10.049v12h-6v-3h-2v10.694a11.96 11.96 0 0 0 -14.15 4.916 7.055 7.055 0 0 0 -6.035.159 9.966 9.966 0 0 0 -3.815-2.921v-12.848h-2v3zm4 11a7.976 7.976 0 0 1 6.7 3.646 1 1 0 0 0 1.416.271 5.052 5.052 0 0 1 5.573-.124 1 1 0 0 0 1.428-.382 9.983 9.983 0 0 1 17.383-.652 1 1 0 0 0 1.125.437 4.984 4.984 0 0 1 6.275 3.804h-43.769a3.657 3.657 0 0 1 3.869-3v-2a5.648 5.648 0 0 0 -5.911 5h-2.027a8.013 8.013 0 0 1 7.938-7zm27 15a3 3 0 0 0 -3 3 1 1 0 0 1 -2 0v-9h10v13a1 1 0 0 1 -2 0v-4a3 3 0 0 0 -3-3zm-38-4a1 1 0 0 1 0-2h31v2zm48.016 18.821a4 4 0 0 1 -4.016 3.179h-34a4 4 0 0 1 -4.014-3.165l-2.805-16.835h27.819v5a3 3 0 0 0 6 0 1 1 0 0 1 2 0v4a3 3 0 0 0 6 0v-9h5.819zm5.984-18.821h-9v-2h9a1 1 0 0 1 0 2z"/></g></svg>