<svg id="Capa_1" enable-background="new 0 0 512 512" height="512" viewBox="0 0 512 512" width="512" xmlns="http://www.w3.org/2000/svg"><g><path d="m18.343 198.425 16.068 269.429c.292 4.898 4.349 8.72 9.255 8.72h52.174c5.121 0 9.272-4.151 9.272-9.272v-16.678c0-3.983 3.229-7.211 7.211-7.211h287.354c3.983 0 7.211 3.229 7.211 7.211v16.678c0 5.121 4.151 9.272 9.272 9.272h52.174c4.906 0 8.963-3.822 9.255-8.72l16.068-269.429z" fill="#5f99d7"/><g fill="#0268b4"><path d="m277.315 272.63h-43.268c-7.965 0-14.423-6.457-14.423-14.423 0-7.965 6.457-14.423 14.423-14.423h43.268c7.965 0 14.423 6.457 14.423 14.423-.001 7.965-6.458 14.423-14.423 14.423z"/><path d="m277.315 339.526h-43.268c-7.965 0-14.423-6.457-14.423-14.423 0-7.965 6.457-14.423 14.423-14.423h43.268c7.965 0 14.423 6.457 14.423 14.423-.001 7.966-6.458 14.423-14.423 14.423z"/><path d="m277.315 406.423h-43.268c-7.965 0-14.423-6.457-14.423-14.423 0-7.965 6.457-14.423 14.423-14.423h43.268c7.965 0 14.423 6.457 14.423 14.423-.001 7.966-6.458 14.423-14.423 14.423z"/><path d="m134.369 272.63h-43.268c-7.965 0-14.423-6.457-14.423-14.423 0-7.965 6.457-14.423 14.423-14.423h43.268c7.965 0 14.423 6.457 14.423 14.423-.001 7.965-6.458 14.423-14.423 14.423z"/><path d="m134.369 339.526h-43.268c-7.965 0-14.423-6.457-14.423-14.423 0-7.965 6.457-14.423 14.423-14.423h43.268c7.965 0 14.423 6.457 14.423 14.423-.001 7.966-6.458 14.423-14.423 14.423z"/><path d="m134.369 406.423h-43.268c-7.965 0-14.423-6.457-14.423-14.423 0-7.965 6.457-14.423 14.423-14.423h43.268c7.965 0 14.423 6.457 14.423 14.423-.001 7.966-6.458 14.423-14.423 14.423z"/><path d="m420.899 272.63h-43.268c-7.965 0-14.423-6.457-14.423-14.423 0-7.965 6.457-14.423 14.423-14.423h43.268c7.965 0 14.423 6.457 14.423 14.423-.001 7.965-6.458 14.423-14.423 14.423z"/><path d="m420.899 339.526h-43.268c-7.965 0-14.423-6.457-14.423-14.423 0-7.965 6.457-14.423 14.423-14.423h43.268c7.965 0 14.423 6.457 14.423 14.423-.001 7.966-6.458 14.423-14.423 14.423z"/><path d="m420.899 406.423h-43.268c-7.965 0-14.423-6.457-14.423-14.423 0-7.965 6.457-14.423 14.423-14.423h43.268c7.965 0 14.423 6.457 14.423 14.423-.001 7.966-6.458 14.423-14.423 14.423z"/></g><g><path d="m452.775 198.425-16.068 269.429c-.292 4.897-4.349 8.72-9.255 8.72h40.883c4.906 0 8.963-3.822 9.255-8.72l16.068-269.429z" fill="#3c87d0"/></g><path d="m461.675 174.906h-411.35v-33.384c0-13.842 11.221-25.063 25.063-25.063h361.224c13.842 0 25.063 11.221 25.063 25.063z" fill="#eb5569"/><path d="m441.421 75.943c11.432-.003 20.651-9.474 20.241-20.999-.391-10.977-9.746-19.518-20.73-19.518-3.69 0-364.146 0-363.504 0-14.968 0-27.102 12.134-27.102 27.102v26.828c0 14.968 12.134 27.102 27.102 27.102h363.99c11.188 0 20.258-9.07 20.258-20.258-.001-11.186-9.068-20.255-20.255-20.257z" fill="#0ab69f"/><path d="m494.774 209.358h-477.548c-9.514 0-17.226-7.712-17.226-17.226 0-9.514 7.712-17.226 17.226-17.226h477.548c9.514 0 17.226 7.712 17.226 17.226 0 9.514-7.712 17.226-17.226 17.226z" fill="#98bce5"/><path d="m494.774 174.906h-40.883c9.514 0 17.226 7.712 17.226 17.226 0 9.514-7.712 17.226-17.226 17.226h40.883c9.514 0 17.226-7.712 17.226-17.226 0-9.514-7.712-17.226-17.226-17.226z" fill="#7bacdf"/><path d="m441.421 75.943c2.683-.001 5.236-.54 7.58-1.488-.694-3.555-3.822-6.238-7.58-6.238h-331.773c-4.267 0-7.726 3.459-7.726 7.726s3.459 7.726 7.726 7.726h331.773c3.76 0 6.889-2.687 7.581-6.244-2.343-.948-4.898-1.482-7.581-1.482z" fill="#01998d"/></g></svg>