<svg height="512" viewBox="0 0 64 64" width="512" xmlns="http://www.w3.org/2000/svg"><g id="website-file-data-graph"><path d="m5 3h32v34h-32z" fill="#6452e2"/><path d="m33 15.033v25.967h-30v-34h22.964z" fill="#64c1f7"/><path d="m26 7v8h7z" fill="#48a3d2"/><path d="m17 22h44v39h-44z" fill="#3780ea"/><path d="m35 42a7 7 0 1 1 -7-7v7z" fill="#ec455a"/><g fill="#f6cc4f"><path d="m38 39a7 7 0 0 0 -7-7v7z"/><circle cx="8" cy="54" r="3"/><circle cx="52" cy="13" r="3"/></g><path d="m17 22h44v6h-44z" fill="#48a3d2"/><path d="m61 21h-23v-7h10.14a4 4 0 1 0 0-2h-10.14v-9a1 1 0 0 0 -1-1h-32a1 1 0 0 0 -1 1v3h-1a1 1 0 0 0 -1 1v34a1 1 0 0 0 1 1h4v8.14a4 4 0 1 0 2 0v-8.14h7v19a1 1 0 0 0 1 1h44a1 1 0 0 0 1-1v-39a1 1 0 0 0 -1-1zm-9-10a2 2 0 1 1 -2 2 2.006 2.006 0 0 1 2-2zm-46-7h30v17h-2v-5.97a.978.978 0 0 0 -.25-.65l-7.03-8.04a1 1 0 0 0 -.76-.34h-19.96zm24.77 10h-3.77v-4.3zm-20.77 40a2 2 0 1 1 -2-2 2.006 2.006 0 0 1 2 2zm6-32v18h-12v-32h21v7a1 1 0 0 0 1 1h6v5h-15a1 1 0 0 0 -1 1zm44 38h-42v-31h42zm0-33h-42v-4h42z"/><path d="m20 24h2v2h-2z"/><path d="m24 24h2v2h-2z"/><path d="m28 24h2v2h-2z"/><path d="m35 41h-6v-6a1 1 0 0 0 -1-1 8 8 0 1 0 8 8 1 1 0 0 0 -1-1zm-7 7a6 6 0 0 1 -1-11.917v5.917a1 1 0 0 0 1 1h5.917a6.01 6.01 0 0 1 -5.917 5z"/><path d="m31 40h7a1 1 0 0 0 1-1 8.009 8.009 0 0 0 -8-8 1 1 0 0 0 -1 1v7a1 1 0 0 0 1 1zm1-6.917a6.017 6.017 0 0 1 4.917 4.917h-4.917z"/><path d="m56 46a2 2 0 0 0 -2 2 1.967 1.967 0 0 0 .12.657l-3.754 4.38a1.916 1.916 0 0 0 -1.19.145l-4.195-3c.006-.062.019-.122.019-.186a2 2 0 1 0 -3.963.365l-4.38 3.755a1.967 1.967 0 0 0 -.657-.116 2.021 2.021 0 1 0 1.963 1.635l4.38-3.755a1.967 1.967 0 0 0 .657.12 1.994 1.994 0 0 0 .824-.182l4.2 3c-.006.062-.019.122-.019.186a2 2 0 0 0 4 0 1.967 1.967 0 0 0 -.12-.657l3.755-4.38a2 2 0 1 0 .36-3.967z"/><path d="m42 32h4v2h-4z"/><path d="m48 32h10v2h-10z"/><path d="m20 52h2v2h-2z"/><path d="m24 52h7v2h-7z"/><path d="m20 56h4v2h-4z"/><path d="m26 56h5v2h-5z"/><path d="m42 36h4v2h-4z"/><path d="m48 36h10v2h-10z"/><path d="m52 42v-2h-8-2v2h2z"/><path d="m54 40h4v2h-4z"/><path d="m6 10h4v2h-4z"/><path d="m12 10h11v2h-11z"/><path d="m6 14h6v2h-6z"/><path d="m14 14h9v2h-9z"/><path d="m6 18h2v2h-2z"/><path d="m10 18h4v2h-4z"/></g></svg>