<svg height="480pt" viewBox="0 0 480.00027 480" width="480pt" xmlns="http://www.w3.org/2000/svg"><path d="m208 104-72-64h-5.441406c-1.683594-.015625-3.363282.257812-4.957032.800781l-102.480468 33.199219c-9.132813 3.601562-15.128906 12.425781-15.121094 22.238281v279.761719h80v96h152v-400zm0 0" fill="#bddbff"/><path d="m456.878906 74-102.480468-33.199219c-1.59375-.542969-3.273438-.816406-4.957032-.800781h-5.441406l-72 64-32-32v400h152v-96h80v-279.761719c.007812-9.8125-5.988281-18.636719-15.121094-22.238281zm0 0" fill="#bddbff"/><g fill="#3d9ae2"><path d="m459.351562 66.398438-102.304687-33.140626c-2.445313-.847656-5.019531-1.273437-7.605469-1.257812h-1.441406l-21.601562-28.800781c-1.296876-1.730469-3.242188-2.863281-5.390626-3.136719-.335937 0-.671874.0273438-1.007812.074219v-.136719h-160v.136719c-.332031-.0468752-.671875-.074219-1.007812-.074219-2.148438.273438-4.09375 1.40625-5.390626 3.136719l-21.601562 28.800781h-1.441406c-2.523438-.019531-5.03125.382812-7.421875 1.191406l-102.960938 33.367188c-12.210937 4.777344-20.2304685 16.570312-20.175781 29.679687v311.761719c0 4.417969 3.582031 8 8 8h72v56c0 4.417969 3.582031 8 8 8h304c4.417969 0 8-3.582031 8-8v-56h72c4.417969 0 8-3.582031 8-8v-311.761719c.007812-13.273437-8.21875-25.164062-20.648438-29.839843zm-126.175781-27.484376-60.855469 54.09375-20.320312-20.34375 66.578125-53.265624zm-93.175781 22.839844-57.191406-45.753906h114.398437zm-78.550781-42.355468 66.550781 53.265624-20.320312 20.34375-60.855469-54.09375zm-145.449219 380.601562v-16h64v16zm80-232h-16v200h-64v-271.761719c-.066406-6.375 3.726562-12.15625 9.601562-14.636719l102.648438-33.257812c.746094-.238281 1.527344-.355469 2.308594-.34375h2.402344l69.726562 61.984375c3.167969 2.808594 7.976562 2.667969 10.96875-.328125l18.34375-18.34375v372.6875h-136zm288 296h-136v-372.6875l18.34375 18.34375c2.992188 2.996094 7.800781 3.136719 10.96875.328125l69.726562-61.984375h2.402344c.84375-.007812 1.6875.128906 2.488282.40625l102.015624 33.035156c6.085938 2.382813 10.082032 8.261719 10.054688 14.796875v271.761719h-64v-200h-16zm80-64h-64v-16h64zm0 0"/><path d="m264 144h16v16h-16zm0 0"/><path d="m264 192h16v16h-16zm0 0"/><path d="m264 240h16v16h-16zm0 0"/><path d="m264 288h16v16h-16zm0 0"/><path d="m264 336h16v16h-16zm0 0"/><path d="m264 384h16v16h-16zm0 0"/><path d="m264 432h16v16h-16zm0 0"/></g></svg>