<svg height="512" viewBox="0 0 64 64" width="512" xmlns="http://www.w3.org/2000/svg"><g id="POS"><rect fill="#acabb1" height="46" rx="4" width="28" x="17" y="15"/><path d="m45 19v38a4 4 0 0 1 -4 4h-4a4 4 0 0 0 4-4v-38a4 4 0 0 0 -4-4h4a4 4 0 0 1 4 4z" fill="#898890"/><path d="m61 35v3a5 5 0 0 1 -10 0v-3z" fill="#fee9ab"/><path d="m56 43h-11v-24a4 4 0 0 0 -4-4v-7a5 5 0 0 1 10 0v30a5 5 0 0 0 5 5z" fill="#ffc477"/><path d="m25 3h21a4.985 4.985 0 0 0 -5 5v15h-20v-16a4 4 0 0 1 4-4z" fill="#fee9ab"/><g fill="#ffde55"><path d="m37 53h4v4h-4z"/><path d="m37 45h4v4h-4z"/><path d="m37 37h4v4h-4z"/></g><path d="m21 29h20v4h-20z" fill="#46f8ff"/><path d="m37 29h4v4h-4z" fill="#00d7df"/><g fill="#ffde55"><path d="m29 53h4v4h-4z"/><path d="m29 45h4v4h-4z"/><path d="m29 37h4v4h-4z"/><path d="m21 53h4v4h-4z"/><path d="m21 45h4v4h-4z"/><path d="m21 37h4v4h-4z"/></g><path d="m13 27h4v28h-4z" fill="#ff7956"/><path d="m9 27h4v28h-4z" fill="#acabb1"/><path d="m3 27h6v28h-6z" fill="#fee9ab"/><path d="m61 34h-9v-26a6 6 0 0 0 -6-6h-21a5 5 0 0 0 -5 5v7.1a5.017 5.017 0 0 0 -4 4.9v7h-13a1 1 0 0 0 -1 1v28a1 1 0 0 0 1 1h13v1a5 5 0 0 0 5 5h20a5 5 0 0 0 5-5v-13h10a6 6 0 0 0 6-6v-3a1 1 0 0 0 -1-1zm-53 20h-4v-26h4zm4 0h-2v-26h2zm4 0h-2v-26h2zm6-47a3.009 3.009 0 0 1 3-3h16.53a5.971 5.971 0 0 0 -1.53 4v14h-18zm22 50a3.009 3.009 0 0 1 -3 3h-20a3.009 3.009 0 0 1 -3-3v-38a3.01 3.01 0 0 1 2-2.82v6.82a1 1 0 0 0 1 1h20a1 1 0 0 0 1-1v-6.82a3.01 3.01 0 0 1 2 2.82zm2-15v-23a5.017 5.017 0 0 0 -4-4.9v-6.1a4 4 0 0 1 8 0v30a5.979 5.979 0 0 0 1.54 4zm14-4a4 4 0 0 1 -8 0v-2h8z"/><path d="m25 36h-4a1 1 0 0 0 -1 1v4a1 1 0 0 0 1 1h4a1 1 0 0 0 1-1v-4a1 1 0 0 0 -1-1zm-1 4h-2v-2h2z"/><path d="m33 36h-4a1 1 0 0 0 -1 1v4a1 1 0 0 0 1 1h4a1 1 0 0 0 1-1v-4a1 1 0 0 0 -1-1zm-1 4h-2v-2h2z"/><path d="m41 36h-4a1 1 0 0 0 -1 1v4a1 1 0 0 0 1 1h4a1 1 0 0 0 1-1v-4a1 1 0 0 0 -1-1zm-1 4h-2v-2h2z"/><path d="m25 44h-4a1 1 0 0 0 -1 1v4a1 1 0 0 0 1 1h4a1 1 0 0 0 1-1v-4a1 1 0 0 0 -1-1zm-1 4h-2v-2h2z"/><path d="m33 44h-4a1 1 0 0 0 -1 1v4a1 1 0 0 0 1 1h4a1 1 0 0 0 1-1v-4a1 1 0 0 0 -1-1zm-1 4h-2v-2h2z"/><path d="m41 44h-4a1 1 0 0 0 -1 1v4a1 1 0 0 0 1 1h4a1 1 0 0 0 1-1v-4a1 1 0 0 0 -1-1zm-1 4h-2v-2h2z"/><path d="m25 52h-4a1 1 0 0 0 -1 1v4a1 1 0 0 0 1 1h4a1 1 0 0 0 1-1v-4a1 1 0 0 0 -1-1zm-1 4h-2v-2h2z"/><path d="m33 52h-4a1 1 0 0 0 -1 1v4a1 1 0 0 0 1 1h4a1 1 0 0 0 1-1v-4a1 1 0 0 0 -1-1zm-1 4h-2v-2h2z"/><path d="m41 52h-4a1 1 0 0 0 -1 1v4a1 1 0 0 0 1 1h4a1 1 0 0 0 1-1v-4a1 1 0 0 0 -1-1zm-1 4h-2v-2h2z"/><path d="m41 28h-20a1 1 0 0 0 -1 1v4a1 1 0 0 0 1 1h20a1 1 0 0 0 1-1v-4a1 1 0 0 0 -1-1zm-1 4h-18v-2h18z"/><path d="m34 15a3.01 3.01 0 0 1 -2 2.82v1.18h-2v-1.18a3.01 3.01 0 0 1 -2-2.82h2a1 1 0 1 0 1-1 3 3 0 0 1 -1-5.82v-1.18h2v1.18a3.01 3.01 0 0 1 2 2.82h-2a1 1 0 1 0 -1 1 3.009 3.009 0 0 1 3 3z"/><path d="m2 2h2v2h-2z"/><path d="m6 2h8v2h-8z"/><path d="m2 8h2v2h-2z"/><path d="m6 8h8v2h-8z"/><path d="m2 14h2v2h-2z"/><path d="m6 14h8v2h-8z"/><path d="m60 48h2v2h-2z"/><path d="m50 48h8v2h-8z"/><path d="m60 54h2v2h-2z"/><path d="m50 54h8v2h-8z"/><path d="m60 60h2v2h-2z"/><path d="m50 60h8v2h-8z"/></g></svg>