<svg id="Capa_1" enable-background="new 0 0 512 512" height="512" viewBox="0 0 512 512" width="512" xmlns="http://www.w3.org/2000/svg"><g><g><g><path d="m408.516 478h-305.032c-20.459 0-37.62-15.438-39.777-35.783l-26.207-247.217 1.095-1.915 432.94-1.337 2.965 3.252-26.207 247.217c-2.156 20.345-19.318 35.783-39.777 35.783z" fill="#fee97d"/><path d="m471.54 191.75-433.7 1.34-.34 1.91 2.25 21.2 138.254-.426c148.417-.457 168.875 214.307 23.059 241.973-18.189 3.451-36.934 5.253-56.064 5.253h-71.515c-.416 0-.827-.017-1.24-.029 7.366 9.203 18.678 15.029 31.24 15.029h305.032c20.459 0 37.62-15.438 39.777-35.783l26.207-247.217z" fill="#fedf30"/><path d="m484 195h-456c-11.322 0-20.5-9.178-20.5-20.5 0-11.322 9.178-20.5 20.5-20.5h456c11.322 0 20.5 9.178 20.5 20.5 0 11.322-9.178 20.5-20.5 20.5z" fill="#f3eae6"/><path d="m484 154h-30c11.322 0 20.5 9.178 20.5 20.5s-9.178 20.5-20.5 20.5h30c11.322 0 20.5-9.178 20.5-20.5s-9.178-20.5-20.5-20.5z" fill="#e1d3ce"/><g><g><path d="m62.038 124h154.69c8.284 0 15 6.716 15 15 0 8.284-6.716 15-15 15h-163c-16.569 0-30-13.431-30-30 0-16.569 13.431-30 30-30h161c9.389 0 17 7.611 17 17v28" fill="#7acaa6"/><path d="m214.728 94h-30c9.389 0 17 7.611 17 17v28c0 8.284-6.715 15-15 15h30c8.285 0 15-6.716 15-15v-28c0-9.389-7.611-17-17-17z" fill="#57be92"/></g><g><path d="m62.038 64h154.69c8.284 0 15 6.716 15 15 0 8.284-6.716 15-15 15h-163c-16.569 0-30-13.431-30-30 0-16.569 13.431-30 30-30h161c9.389 0 17 7.611 17 17v28" fill="#f58a97"/><path d="m214.728 34h-30c9.389 0 17 7.611 17 17v28c0 8.284-6.715 15-15 15h30c8.285 0 15-6.716 15-15v-28c0-9.389-7.611-17-17-17z" fill="#f07281"/></g><g><path d="m316.582 124h154.69c8.284 0 15 6.716 15 15 0 8.284-6.716 15-15 15h-163c-16.569 0-30-13.431-30-30 0-16.569 13.431-30 30-30h161c9.389 0 17 7.611 17 17v28" fill="#b3dafe"/><path d="m469.272 94h-30c9.389 0 17 7.611 17 17v28c0 8.284-6.716 15-15 15h30c8.284 0 15-6.716 15-15v-28c0-9.389-7.611-17-17-17z" fill="#8ac9fe"/></g><g><path d="m316.582 64h154.69c8.284 0 15 6.716 15 15 0 8.284-6.716 15-15 15h-163c-16.569 0-30-13.431-30-30 0-16.569 13.431-30 30-30h161c9.389 0 17 7.611 17 17v28" fill="#aca6d6"/><path d="m469.272 34h-30c9.389 0 17 7.611 17 17v28c0 8.284-6.716 15-15 15h30c8.284 0 15-6.716 15-15v-28c0-9.389-7.611-17-17-17z" fill="#978ecb"/></g></g><g><path d="m251.009 313h-13.509v-51.509c0-11.869 9.622-21.491 21.491-21.491h13.509v51.509c0 11.869-9.622 21.491-21.491 21.491z" fill="#fff"/><path d="m254.526 240.471c6.711 5.248 12.704 11.182 17.974 17.643v-18.114h-13.509c-1.532 0-3.024.166-4.465.471z" fill="#faf7f7"/><path d="m251.009 431h-13.509v-51.509c0-11.869 9.622-21.491 21.491-21.491h13.509v51.509c0 11.869-9.622 21.491-21.491 21.491z" fill="#fff"/></g><g fill="#fff"><path d="m102.986 358.89-13.458 1.177 4.489 51.314c1.035 11.824 11.458 20.57 23.282 19.536l13.458-1.177-4.489-51.313c-1.035-11.825-11.459-20.571-23.282-19.537z"/><path d="m92.701 241.339-13.458 1.178 4.489 51.313c1.034 11.824 11.458 20.57 23.282 19.536l13.458-1.177-4.489-51.313c-1.034-11.825-11.458-20.571-23.282-19.537z"/></g><g fill="#fff"><path d="m177.986 358.89-13.458 1.177 4.489 51.314c1.035 11.824 11.458 20.57 23.282 19.536l13.458-1.177-4.489-51.313c-1.035-11.825-11.459-20.571-23.282-19.537z"/><path d="m167.701 241.339-13.458 1.178 4.489 51.313c1.034 11.824 11.458 20.57 23.282 19.536l13.458-1.177-4.489-51.313c-1.034-11.825-11.458-20.571-23.282-19.537z"/></g><g fill="#faf7f7"><g><path d="m407.014 358.89 13.458 1.177-4.489 51.314c-1.034 11.824-11.458 20.57-23.282 19.536l-13.458-1.177 4.489-51.313c1.035-11.825 11.459-20.571 23.282-19.537z"/><path d="m417.299 241.339 13.458 1.178-4.489 51.313c-1.034 11.824-11.458 20.57-23.282 19.536l-13.458-1.177 4.489-51.313c1.034-11.825 11.458-20.571 23.282-19.537z"/></g><g><path d="m332.014 358.89 13.458 1.177-4.489 51.314c-1.034 11.824-11.458 20.57-23.282 19.536l-13.458-1.177 4.489-51.313c1.035-11.825 11.459-20.571 23.282-19.537z"/><path d="m342.299 241.339 13.458 1.178-4.489 51.313c-1.034 11.824-11.458 20.57-23.282 19.536l-13.458-1.177 4.489-51.313c1.034-11.825 11.458-20.571 23.282-19.537z"/></g></g></g><path d="m223.626 128.773h-161.039c-2.636 0-4.774-2.137-4.774-4.773 0-2.636 2.137-4.773 4.774-4.773h161.039z" fill="#57be92"/><path d="m223.626 68.773h-161.039c-2.636 0-4.774-2.137-4.774-4.773 0-2.636 2.137-4.773 4.774-4.773h161.039z" fill="#f07281"/><path d="m474.5 128.773h-161.039c-2.636 0-4.773-2.137-4.773-4.773 0-2.636 2.137-4.773 4.773-4.773h161.039z" fill="#8ac9fe"/><path d="m474.5 68.773h-161.039c-2.636 0-4.773-2.137-4.773-4.773 0-2.636 2.137-4.773 4.773-4.773h161.039z" fill="#978ecb"/></g><path d="m492.029 147.679c1.121-2.672 1.743-5.604 1.743-8.679v-28c0-6.3-2.392-12.051-6.313-16.396 3.904-4.049 6.313-9.549 6.313-15.604v-28c0-13.509-10.991-24.5-24.5-24.5h-161c-20.678 0-37.5 16.822-37.5 37.5 0 12.254 5.909 23.153 15.026 30-9.117 6.847-15.026 17.746-15.026 30 0 8.436 2.801 16.228 7.52 22.5h-40.354c.833-2.348 1.29-4.871 1.29-7.5v-28c0-6.3-2.392-12.051-6.313-16.396 3.904-4.049 6.313-9.549 6.313-15.604v-28c0-13.509-10.991-24.5-24.5-24.5h-161c-20.678 0-37.5 16.822-37.5 37.5 0 12.254 5.909 23.153 15.026 30-9.117 6.847-15.026 17.746-15.026 30 0 8.569 2.896 16.471 7.751 22.793-13.541 1.957-23.979 13.633-23.979 27.707 0 16.156 14.341 29.596 30.753 28l25.495 240.507c2.568 24.225 22.875 42.493 47.235 42.493h305.032c24.361 0 44.667-18.268 47.235-42.493l4.133-38.987c.437-4.119-2.548-7.812-6.667-8.249-4.112-.438-7.813 2.548-8.249 6.667l-4.133 38.987c-1.757 16.575-15.651 29.074-32.319 29.074h-305.031c-16.668 0-30.562-12.499-32.319-29.074l-25.328-238.925h55.532c4.142 0 7.5-3.358 7.5-7.5s-3.358-7.5-7.5-7.5h-73.369c-7.168 0-13-5.832-13-13s5.832-13 13-13h456c7.168 0 13 5.832 13 13s-5.832 13-13 13h-352.631c-4.142 0-7.5 3.358-7.5 7.5s3.358 7.5 7.5 7.5h334.794l-18.209 171.773c-.437 4.119 2.548 7.812 6.667 8.249 4.048.429 7.819-2.528 8.249-6.667l18.377-173.355c16.156.684 30.753-10.988 30.753-28 0-12.649-8.433-23.361-19.971-26.821zm-267.801-29.894c-2.347-.832-4.872-1.285-7.5-1.285h-154.69c-4.142 0-7.5 3.358-7.5 7.5s3.358 7.5 7.5 7.5h154.69c4.136 0 7.5 3.364 7.5 7.5s-3.364 7.5-7.5 7.5h-163c-12.407 0-22.5-10.093-22.5-22.5s10.093-22.5 22.5-22.5h161c5.238 0 9.5 4.262 9.5 9.5zm0-60c-2.347-.832-4.872-1.285-7.5-1.285h-154.69c-4.142 0-7.5 3.358-7.5 7.5s3.358 7.5 7.5 7.5h154.69c4.136 0 7.5 3.364 7.5 7.5s-3.364 7.5-7.5 7.5h-163c-12.407 0-22.5-10.093-22.5-22.5s10.093-22.5 22.5-22.5h161c5.238 0 9.5 4.262 9.5 9.5zm254.544 60c-2.347-.832-4.872-1.285-7.5-1.285h-154.69c-4.142 0-7.5 3.358-7.5 7.5s3.358 7.5 7.5 7.5h154.69c4.136 0 7.5 3.364 7.5 7.5s-3.364 7.5-7.5 7.5h-163c-12.407 0-22.5-10.093-22.5-22.5s10.093-22.5 22.5-22.5h161c5.238 0 9.5 4.262 9.5 9.5zm0-60c-2.347-.832-4.872-1.285-7.5-1.285h-154.69c-4.142 0-7.5 3.358-7.5 7.5s3.358 7.5 7.5 7.5h154.69c4.136 0 7.5 3.364 7.5 7.5s-3.364 7.5-7.5 7.5h-163c-12.407 0-22.5-10.093-22.5-22.5s10.093-22.5 22.5-22.5h161c5.238 0 9.5 4.262 9.5 9.5zm-373.651 263.164c3.231 0 12.942-1.021 16.005-1.289 4.126-.361 7.179-3.999 6.818-8.125l-4.489-51.313c-.675-7.714-4.313-14.704-10.246-19.682-5.932-4.979-13.449-7.345-21.162-6.672l-13.458 1.177c-4.065.333-7.191 4.067-6.818 8.125l4.489 51.313c1.32 15.071 14.006 26.467 28.861 26.466zm-1.554-68.918c2.862 2.402 4.619 5.775 4.944 9.498l3.836 43.842-5.986.523c-7.694.674-14.484-5.033-15.157-12.718l-3.836-43.842c5.513-.847 11.705-1.075 16.199 2.697zm76.554 68.918c3.247 0 12.93-1.02 16.005-1.289 4.126-.361 7.179-3.999 6.818-8.125l-4.489-51.313c-.675-7.714-4.313-14.704-10.246-19.682-5.932-4.979-13.449-7.345-21.162-6.672l-13.458 1.177c-4.065.333-7.191 4.067-6.818 8.125l4.489 51.313c1.32 15.071 14.006 26.467 28.861 26.466zm-1.554-68.918c2.862 2.402 4.619 5.775 4.944 9.498l3.836 43.842-5.986.523c-7.692.674-14.484-5.033-15.157-12.718l-3.836-43.842c5.513-.847 11.705-1.074 16.199 2.697zm-92.022 160.004c1.318 15.07 14.005 26.465 28.859 26.465 3.236 0 12.938-1.02 16.006-1.289 4.126-.361 7.179-3.999 6.818-8.125l-4.489-51.313c-1.394-15.924-15.494-27.745-31.407-26.354l-13.458 1.178c-4.126.361-7.179 3.999-6.818 8.125zm17.095-45.674c7.694-.677 14.483 5.034 15.156 12.719l3.836 43.842-5.986.523c-7.681.678-14.485-5.032-15.157-12.718l-3.836-43.842zm229.028-14.943c-15.921-1.394-30.014 10.429-31.407 26.354l-4.489 51.313c-.361 4.126 2.691 7.764 6.818 8.125l13.458 1.178c15.676 1.358 30.041-10.349 31.407-26.354l4.489-51.313c.361-4.126-2.691-7.764-6.818-8.125zm.843 59.31c-.672 7.685-7.471 13.394-15.156 12.717l-5.987-.523 3.836-43.842c.672-7.685 7.469-13.38 15.156-12.719l5.987.524zm29.718-167.558c.374-4.059-2.759-7.79-6.818-8.125l-13.458-1.177c-7.717-.673-15.229 1.694-21.162 6.672-5.932 4.978-9.571 11.967-10.246 19.681l-4.489 51.313c-.361 4.126 2.691 7.764 6.818 8.125 2.208.193 13.924 1.289 16.006 1.289 14.853 0 27.541-11.396 28.859-26.465zm-19.433 50.006c-.672 7.686-7.485 13.392-15.156 12.718l-5.987-.523 3.836-43.843c.624-7.596 7.574-13.42 15.156-12.717l5.987.523zm-63.796-53.176c0-4.142-3.358-7.5-7.5-7.5h-13.509c-15.985 0-28.991 13.005-28.991 28.991v51.509c0 4.142 3.358 7.5 7.5 7.5h13.509c15.985 0 28.991-13.005 28.991-28.991zm-15 51.509c0 7.714-6.276 13.991-13.991 13.991h-6.009v-44.009c0-7.714 6.276-13.991 13.991-13.991h6.009zm173.229-48.339c.374-4.059-2.759-7.79-6.818-8.125l-13.458-1.177c-7.717-.673-15.229 1.694-21.162 6.672-5.932 4.978-9.571 11.967-10.246 19.681l-4.489 51.313c-.361 4.126 2.691 7.764 6.818 8.125l13.458 1.178c15.675 1.358 30.041-10.35 31.407-26.354zm-19.433 50.006c-.672 7.686-7.484 13.392-15.156 12.718l-5.987-.523 3.836-43.843c.624-7.597 7.572-13.42 15.156-12.717l5.987.523zm-159.805 57.324c-15.985 0-28.991 13.005-28.991 28.991v51.509c0 4.142 3.358 7.5 7.5 7.5h13.509c15.985 0 28.991-13.005 28.991-28.991v-51.509c0-4.142-3.358-7.5-7.5-7.5zm6.009 59.009c0 7.714-6.276 13.991-13.991 13.991h-6.009v-44.009c0-7.714 6.276-13.991 13.991-13.991h6.009zm-103.455 2.526c1.318 15.07 14.005 26.465 28.859 26.465 3.252 0 12.926-1.019 16.006-1.289 4.126-.361 7.179-3.999 6.818-8.125l-4.489-51.313c-1.394-15.924-15.497-27.745-31.407-26.354l-13.458 1.178c-4.126.361-7.179 3.999-6.818 8.125zm17.095-45.674c7.687-.677 14.484 5.034 15.156 12.719l3.836 43.842-5.986.523c-7.683.678-14.485-5.032-15.157-12.718l-3.836-43.842zm229.028-14.943c-15.914-1.394-30.014 10.429-31.407 26.354l-4.489 51.313c-.361 4.126 2.691 7.764 6.818 8.125l13.458 1.178c15.676 1.358 30.041-10.349 31.407-26.354l4.489-51.313c.361-4.126-2.691-7.764-6.818-8.125zm.843 59.31c-.671 7.685-7.47 13.394-15.156 12.717l-5.987-.523 3.836-43.842c.672-7.685 7.47-13.38 15.156-12.719l5.987.524z"/></g></svg>