<svg id="Line" height="512" viewBox="0 0 64 64" width="512" xmlns="http://www.w3.org/2000/svg"><path d="m62.4 29-6.75-9a5 5 0 0 0 -4-2h-3.18a3 3 0 0 0 -2.12.88l-3.7 3.71v8.41a1 1 0 1 1 -2 0v-8.41l-3.71-3.71a3 3 0 0 0 -2.12-.88h-3.17a5 5 0 0 0 -4 2l-6.76 9a3 3 0 0 0 .27 3.92l3.15 3.15a3 3 0 0 0 4.34-.1v23.03a3 3 0 0 0 3 3h20a3 3 0 0 0 3-3v-23a3 3 0 0 0 4.33.1l3.15-3.15a3 3 0 0 0 .27-3.95z" fill="#c4a2fc"/><path d="m47.81 30.45-20.81-12.99a2.43 2.43 0 0 1 1.58-2 7 7 0 1 0 -9.58-6.46 1 1 0 0 0 2 0 5 5 0 0 1 9.89-1.08 5 5 0 0 1 -3 5.73 4.42 4.42 0 0 0 -2.89 3.79l-20.83 13a6.79 6.79 0 0 0 3.62 12.56h2.21v3a3 3 0 0 0 3 3h2a3 3 0 0 0 3-3v-3h16v3a3 3 0 0 0 3 3h2a3 3 0 0 0 3-3v-3h2.21a6.79 6.79 0 0 0 3.6-12.55zm-31.81 15.55a1 1 0 0 1 -1 1h-2a1 1 0 0 1 -1-1v-5a1 1 0 0 1 1-1h2a1 1 0 0 1 1 1zm24 0a1 1 0 0 1 -1 1h-2a1 1 0 0 1 -1-1v-5a1 1 0 0 1 1-1h2a1 1 0 0 1 1 1zm4.21-5h-2.21a3 3 0 0 0 -3-3h-2a3 3 0 0 0 -3 3h-16a3 3 0 0 0 -3-3h-2a3 3 0 0 0 -3 3h-2.21a4.79 4.79 0 0 1 -2.54-8.85l20.75-12.97 20.75 13a4.79 4.79 0 0 1 -2.54 8.82z" fill="#151a6a"/></svg>